<svg width="60" height="60" viewBox="0 0 60 60" fill="none" xmlns="http://www.w3.org/2000/svg">
<path fill-rule="evenodd" clip-rule="evenodd" d="M31.876 32.5C31.9523 31.0549 33.4906 30.1668 34.7803 30.8232L45.998 36.5322C46.6665 36.8725 47.0885 37.5585 47.0908 38.3086L47.1143 46.127L48.0342 47.7188L39.8809 52.4258L38.9619 50.834L32.2041 46.9043C31.5557 46.5273 31.1715 45.8184 31.2109 45.0693L31.876 32.5ZM38.2119 38.6201C39.0202 38.4992 39.8565 38.8706 40.29 39.6211C40.856 40.6014 40.5203 41.8549 39.54 42.4209C38.5598 42.9868 37.3062 42.6511 36.7402 41.6709C36.3067 40.9198 36.4036 40.0088 36.9131 39.3691L33.7998 33.9785L33.209 45.1748L39.9668 49.1045C40.2218 49.2528 40.4405 49.4556 40.6074 49.6973L45.3076 46.9834C45.1818 46.7182 45.1152 46.4277 45.1143 46.1328L45.0908 38.3145L35.0996 33.2295L38.2119 38.6201Z" fill="black"/>
<path d="M38 8C40.2091 8 42 9.79086 42 12V30.5C42 31.0523 41.5523 31.5 41 31.5C40.4477 31.5 40 31.0523 40 30.5V12C40 10.8954 39.1046 10 38 10H12C10.8954 10 10 10.8954 10 12V33C10 34.1046 10.8954 35 12 35H28C28.5523 35 29 35.4477 29 36C29 36.5523 28.5523 37 28 37H12C9.79086 37 8 35.2091 8 33V12C8 9.79086 9.79086 8 12 8H38Z" fill="black"/>
<path d="M25.8604 14.7061C26.0228 14.1783 26.5825 13.8815 27.1104 14.0439C27.6381 14.2064 27.9338 14.7662 27.7715 15.2939L23.4834 29.2324C23.3208 29.76 22.7611 30.0559 22.2334 29.8936C21.7056 29.7311 21.4089 29.1714 21.5713 28.6436L25.8604 14.7061Z" fill="black"/>
<path d="M30.5859 17.1289C30.9897 16.7521 31.6441 16.7522 32.0479 17.1289L36.1836 20.9883C36.7889 21.5535 36.7891 22.47 36.1836 23.0352L32.0479 26.8945C31.6441 27.2709 30.9896 27.2711 30.5859 26.8945C30.1822 26.5177 30.1822 25.9061 30.5859 25.5293L34.3555 22.0117L30.5859 18.4932C30.1825 18.1165 30.1827 17.5057 30.5859 17.1289Z" fill="black"/>
<path d="M17.5322 17.3496C17.936 16.9728 18.5914 16.9728 18.9951 17.3496C19.3984 17.7264 19.3985 18.3371 18.9951 18.7139L15.4619 22.0107L18.9951 25.3076C19.3988 25.6844 19.3988 26.2961 18.9951 26.6729C18.5914 27.0497 17.936 27.0497 17.5322 26.6729L13.6348 23.0342C13.0291 22.4689 13.0291 21.5525 13.6348 20.9873L17.5322 17.3496Z" fill="black"/>
</svg>
